<svg xmlns="http://www.w3.org/2000/svg" xmlns:xlink="http://www.w3.org/1999/xlink" width="202" height="210" version="1.1" viewBox="0 0 202 210"><title>Extensions</title><desc>Created with Sketch.</desc><defs><polygon id="path-1" points="0 209.099 201.854 209.099 201.854 .008 0 .008"/></defs><g id="Banners" fill="none" fill-rule="evenodd" stroke="none" stroke-width="1"><g id="Docs/Extensions" transform="translate(-921.000000, -3349.000000)"><g id="Extensions" transform="translate(921.000000, 3349.000000)"><g id="Group-73" transform="translate(0.000000, 0.893176)"><path id="Fill-1" fill="#000" d="M71.8061202,103.406704 C69.1175794,111.684129 72.2378369,120.454558 78.9190815,125.30709 L78.9199828,125.302584 L83.3164635,111.769751 L71.8106266,103.410309 L86.0338455,103.410309 L90.4312275,89.8774764 L90.4321288,89.8738712 L76.2026009,89.8738712 L71.8061202,103.406704 Z M78.9217854,125.305288 L78.9181803,125.307991 L90.4303262,133.671039 L101.944275,125.305288 L90.4339313,116.941339 L78.9217854,125.305288 Z M101.944275,125.305288 L97.5486953,111.771554 L109.057236,103.410309 L94.830412,103.410309 L90.4339313,89.8774764 L90.4321288,89.8738712 L104.660755,89.8738712 L109.059039,103.409408 L109.059039,103.408506 L109.062644,103.406704 C111.616893,111.258721 108.986936,120.189579 101.944275,125.305288 Z"/><polygon id="Fill-3" fill="#FFF" points="85.829 103.24 71.783 103.24 82.708 111.822 78.806 125.088 90.511 117.285 101.646 125.088 97.533 111.822 109.239 103.24 95.193 103.24 90.511 90.43"/><path id="Stroke-5" stroke="#3445DC" stroke-dasharray="5.408 4.506" stroke-linecap="round" stroke-linejoin="round" stroke-width="1.803" d="M40.8040815,100.189738 C44.1703906,76.1478927 64.8053691,57.6480644 89.7584163,57.6480644 C107.725584,57.6480644 123.453953,67.2386652 132.109918,81.5844592"/><path id="Stroke-7" stroke="#3445DC" stroke-dasharray="5.408 4.506" stroke-linecap="round" stroke-linejoin="round" stroke-width="1.803" d="M50.0775193,136.625009 C45.8649013,130.961318 42.8347725,124.364794 41.3512532,117.201361"/><path id="Stroke-9" stroke="#3445DC" stroke-dasharray="5.408 4.506" stroke-linecap="round" stroke-linejoin="round" stroke-width="1.803" d="M133.227425,130.696249 C124.856266,146.116378 108.529442,156.585734 89.7592275,156.585734 C79.7432189,156.585734 70.4239056,153.605176 62.6376824,148.482258"/><path id="Stroke-11" stroke="#3445DC" stroke-dasharray="5.408 4.506" stroke-linecap="round" stroke-linejoin="round" stroke-width="1.803" d="M73.9572232,46.2330773 C79.0071373,44.9280129 84.3022017,44.2322189 89.7585966,44.2322189 C110.193489,44.2322189 128.352631,53.9742361 139.844948,69.0671974"/><path id="Stroke-13" stroke="#3445DC" stroke-dasharray="5.408 4.506" stroke-linecap="round" stroke-linejoin="round" stroke-width="1.803" d="M37.1786524,140.974803 C32.0413133,133.284116 28.5262918,124.335232 27.1932876,114.555361 C24.8355193,97.2605536 29.74303,80.6516266 39.575176,67.8073777"/><path id="Stroke-15" stroke="#3445DC" stroke-dasharray="5.408 4.506" stroke-linecap="round" stroke-linejoin="round" stroke-width="1.803" d="M151.981056,116.53612 C147.449382,146.832901 121.317451,170.068094 89.758867,170.068094 C81.0713562,170.068094 72.7957339,168.306979 65.2681803,165.12273"/><path id="Stroke-17" stroke="#3445DC" stroke-dasharray="5.408 4.506" stroke-linecap="round" stroke-linejoin="round" stroke-width="1.803" d="M22.7229013,143.730579 C16.1570215,132.167961 12.5266352,118.739678 12.8222575,104.481309 C13.1593391,88.1833262 18.5760773,73.1840987 27.5303691,60.9617382"/><path id="Stroke-19" stroke="#3445DC" stroke-dasharray="5.408 4.506" stroke-linecap="round" stroke-linejoin="round" stroke-width="1.803" d="M132.667635,170.384536 C119.199695,179.530803 102.727764,184.455438 85.2752318,183.418056 C84.8732575,183.394622 84.4694807,183.366682 84.0666052,183.33694"/><path id="Stroke-21" stroke="#3445DC" stroke-dasharray="5.408 4.506" stroke-linecap="round" stroke-linejoin="round" stroke-width="1.803" d="M164.988979,120.650948 C162.345502,135.476227 155.482197,148.70082 145.76091,159.15215"/><path id="Stroke-23" stroke="#3445DC" stroke-dasharray="5.408 4.506" stroke-linecap="round" stroke-linejoin="round" stroke-width="1.803" d="M136.651236,46.8043133 C140.908918,50.1165451 144.797974,53.865 148.257116,57.9775751"/><path id="Stroke-25" stroke="#3445DC" stroke-dasharray="5.408 4.506" stroke-linecap="round" stroke-linejoin="round" stroke-width="1.803" d="M105.883352,32.4567167 C111.659704,33.6941845 117.175584,35.5769742 122.35979,38.0212661"/><path id="Fill-27" fill="#FFF" d="M75.5978369,34.1924163 C75.5978369,52.574176 60.6968498,67.4751631 42.3141888,67.4751631 C23.9333305,67.4751631 9.03234335,52.574176 9.03234335,34.1924163 C9.03234335,15.8097554 23.9333305,0.90876824 42.3141888,0.90876824 C60.6968498,0.90876824 75.5978369,15.8097554 75.5978369,34.1924163"/><path id="Stroke-29" stroke="#3445DC" stroke-linecap="round" stroke-linejoin="round" stroke-width="1.803" d="M75.5978369,34.1924163 C75.5978369,52.574176 60.6968498,67.4751631 42.3141888,67.4751631 C23.9333305,67.4751631 9.03234335,52.574176 9.03234335,34.1924163 C9.03234335,15.8097554 23.9333305,0.90876824 42.3141888,0.90876824 C60.6968498,0.90876824 75.5978369,15.8097554 75.5978369,34.1924163 Z"/><path id="Fill-31" fill="#FFF" d="M51.1354506,50.647133 L26.3446352,50.647133 C25.6091845,50.647133 25.0134335,50.0504807 25.0134335,49.31503 L25.0134335,16.9128412 C25.0134335,16.1782918 25.6091845,15.5825408 26.3446352,15.5825408 L51.1354506,15.5825408 C51.87,15.5825408 52.4675536,16.1782918 52.4675536,16.9128412 L52.4675536,49.31503 C52.4675536,50.0504807 51.87,50.647133 51.1354506,50.647133"/><path id="Stroke-33" stroke="#3445DC" stroke-linecap="round" stroke-linejoin="round" stroke-width="1.803" d="M51.1354506,50.647133 L26.3446352,50.647133 C25.6091845,50.647133 25.0134335,50.0504807 25.0134335,49.31503 L25.0134335,16.9128412 C25.0134335,16.1782918 25.6091845,15.5825408 26.3446352,15.5825408 L51.1354506,15.5825408 C51.87,15.5825408 52.4675536,16.1782918 52.4675536,16.9128412 L52.4675536,49.31503 C52.4675536,50.0504807 51.87,50.647133 51.1354506,50.647133 Z"/><path id="Stroke-35" stroke="#E0EAFD" stroke-linecap="round" stroke-linejoin="round" stroke-width="1.803" d="M30.3257124,36.8329185 L47.1293176,36.8329185"/><path id="Stroke-37" stroke="#E0EAFD" stroke-linecap="round" stroke-linejoin="round" stroke-width="1.803" d="M30.3257124,43.2088069 L47.1293176,43.2088069"/><path id="Stroke-39" stroke="#E0EAFD" stroke-linecap="round" stroke-linejoin="round" stroke-width="1.803" d="M40.4079657,30.4579313 L47.128867,30.4579313"/><path id="Stroke-41" stroke="#E0EAFD" stroke-linecap="round" stroke-linejoin="round" stroke-width="1.803" d="M40.4079657,24.0828541 L47.128867,24.0828541"/><path id="Stroke-43" stroke="#3445DC" stroke-linecap="round" stroke-linejoin="round" stroke-width="1.803" d="M35.3391245,22.98797 C35.3391245,22.1524764 34.5036309,21.3169828 32.8326438,21.3169828 C31.1607554,21.3169828 30.3261631,22.1524764 30.3261631,23.8234635 C30.3261631,26.3299442 35.3391245,25.4944506 35.3391245,28.0009313 C35.3391245,29.6719185 34.5036309,30.5083133 32.8326438,30.5083133 C31.1607554,30.5083133 30.3261631,29.6719185 30.3261631,28.8364249"/><path id="Stroke-45" stroke="#3445DC" stroke-linecap="round" stroke-linejoin="round" stroke-width="1.803" d="M32.8324635,20.4812189 L32.8324635,21.3167124"/><path id="Stroke-47" stroke="#3445DC" stroke-linecap="round" stroke-linejoin="round" stroke-width="1.803" d="M32.8324635,30.5080429 L32.8324635,31.3435365"/><path id="Fill-49" fill="#FFF" d="M59.142309,55.9843777 L45.0272446,55.9843777 C44.291794,55.9843777 43.6951416,55.3886266 43.6951416,54.6522747 L43.6951416,36.9365665 C43.6951416,36.2020172 44.291794,35.6053648 45.0272446,35.6053648 L59.142309,35.6053648 C59.8768584,35.6053648 60.474412,36.2020172 60.474412,36.9365665 L60.474412,54.6522747 C60.474412,55.3886266 59.8768584,55.9843777 59.142309,55.9843777"/><path id="Stroke-51" stroke="#3445DC" stroke-linecap="round" stroke-linejoin="round" stroke-width="1.803" d="M59.142309,55.9843777 L45.0272446,55.9843777 C44.291794,55.9843777 43.6951416,55.3886266 43.6951416,54.6522747 L43.6951416,36.9365665 C43.6951416,36.2020172 44.291794,35.6053648 45.0272446,35.6053648 L59.142309,35.6053648 C59.8768584,35.6053648 60.474412,36.2020172 60.474412,36.9365665 L60.474412,54.6522747 C60.474412,55.3886266 59.8768584,55.9843777 59.142309,55.9843777 Z"/><mask id="mask-2" fill="#fff"><use xlink:href="#path-1"/></mask><polygon id="Fill-53" fill="#3445DC" points="46.239 46.281 48.908 46.281 48.908 44.501 46.239 44.501" mask="url(#mask-2)"/><polygon id="Fill-55" fill="#3445DC" points="50.688 46.281 53.356 46.281 53.356 44.501 50.688 44.501" mask="url(#mask-2)"/><polygon id="Fill-56" fill="#3445DC" points="55.135 46.281 57.804 46.281 57.804 44.501 55.135 44.501" mask="url(#mask-2)"/><polygon id="Fill-57" fill="#3445DC" points="46.239 49.84 48.908 49.84 48.908 48.06 46.239 48.06" mask="url(#mask-2)"/><polygon id="Fill-58" fill="#3445DC" points="50.688 49.84 53.356 49.84 53.356 48.06 50.688 48.06" mask="url(#mask-2)"/><polygon id="Fill-59" fill="#3445DC" points="55.135 49.84 57.804 49.84 57.804 48.06 55.135 48.06" mask="url(#mask-2)"/><polygon id="Fill-60" fill="#3445DC" points="46.239 53.399 48.908 53.399 48.908 51.619 46.239 51.619" mask="url(#mask-2)"/><polygon id="Fill-61" fill="#3445DC" points="50.688 53.399 53.356 53.399 53.356 51.619 50.688 51.619" mask="url(#mask-2)"/><polygon id="Fill-62" fill="#3445DC" points="55.135 53.399 57.804 53.399 57.804 51.619 55.135 51.619" mask="url(#mask-2)"/><polygon id="Stroke-63" stroke="#3445DC" stroke-linecap="round" stroke-linejoin="round" stroke-width="1.803" points="47.129 41.833 56.915 41.833 56.915 39.164 47.129 39.164" mask="url(#mask-2)"/><path id="Fill-64" fill="#FFF" d="M200.952515,87.2038069 C200.952515,105.381876 186.215562,120.118828 168.036592,120.118828 C149.858524,120.118828 135.121571,105.381876 135.121571,87.2038069 C135.121571,69.0248369 149.858524,54.2878841 168.036592,54.2878841 C186.215562,54.2878841 200.952515,69.0248369 200.952515,87.2038069" mask="url(#mask-2)"/><path id="Stroke-65" stroke="#3445DC" stroke-linecap="round" stroke-linejoin="round" stroke-width="1.803" d="M200.952515,87.2038069 C200.952515,105.381876 186.215562,120.118828 168.036592,120.118828 C149.858524,120.118828 135.121571,105.381876 135.121571,87.2038069 C135.121571,69.0248369 149.858524,54.2878841 168.036592,54.2878841 C186.215562,54.2878841 200.952515,69.0248369 200.952515,87.2038069 Z" mask="url(#mask-2)"/><path id="Fill-66" fill="#FFF" d="M182.349399,96.1014077 L163.894635,96.1014077 L157.445021,102.329305 L157.445021,96.1014077 L154.782618,96.1014077 C153.304506,96.1014077 152.107597,94.9044979 152.107597,93.4263863 L152.107597,76.5353562 C152.107597,75.0572446 153.304506,73.8603348 154.782618,73.8603348 L182.349399,73.8603348 C183.827511,73.8603348 185.024421,75.0572446 185.024421,76.5353562 L185.024421,93.4263863 C185.024421,94.9044979 183.827511,96.1014077 182.349399,96.1014077" mask="url(#mask-2)"/><path id="Stroke-67" stroke="#3445DC" stroke-linecap="round" stroke-linejoin="round" stroke-width="1.803" d="M182.349399,96.1014077 L163.894635,96.1014077 L157.445021,102.329305 L157.445021,96.1014077 L154.782618,96.1014077 C153.304506,96.1014077 152.107597,94.9044979 152.107597,93.4263863 L152.107597,76.5353562 C152.107597,75.0572446 153.304506,73.8603348 154.782618,73.8603348 L182.349399,73.8603348 C183.827511,73.8603348 185.024421,75.0572446 185.024421,76.5353562 L185.024421,93.4263863 C185.024421,94.9044979 183.827511,96.1014077 182.349399,96.1014077 Z" mask="url(#mask-2)"/><path id="Stroke-68" stroke="#E0EAFD" stroke-linecap="round" stroke-linejoin="round" stroke-width="1.803" d="M157.445112,85.4258369 L179.390562,85.4258369" mask="url(#mask-2)"/><path id="Stroke-69" stroke="#E0EAFD" stroke-linecap="round" stroke-linejoin="round" stroke-width="1.803" d="M157.445112,80.9775322 L179.390562,80.9775322" mask="url(#mask-2)"/><path id="Stroke-70" stroke="#E0EAFD" stroke-linecap="round" stroke-linejoin="round" stroke-width="1.803" d="M157.445112,89.8742318 L179.390562,89.8742318" mask="url(#mask-2)"/><path id="Fill-71" fill="#E0EAFD" d="M188.583515,76.5291373 C188.583515,79.9684506 185.794931,82.7570343 182.355618,82.7570343 C178.915403,82.7570343 176.128622,79.9684506 176.128622,76.5291373 C176.128622,73.089824 178.915403,70.3021416 182.355618,70.3021416 C185.794931,70.3021416 188.583515,73.089824 188.583515,76.5291373" mask="url(#mask-2)"/><path id="Stroke-72" stroke="#3445DC" stroke-linecap="round" stroke-linejoin="round" stroke-width="1.803" d="M188.583515,76.5291373 C188.583515,79.9684506 185.794931,82.7570343 182.355618,82.7570343 C178.915403,82.7570343 176.128622,79.9684506 176.128622,76.5291373 C176.128622,73.089824 178.915403,70.3021416 182.355618,70.3021416 C185.794931,70.3021416 188.583515,73.089824 188.583515,76.5291373 Z" mask="url(#mask-2)"/></g><text id="1" fill="#3445DC" font-family="LucidaGrande, Lucida Grande" font-size="10.676" font-weight="normal"><tspan x="178.797" y="78.426">1</tspan></text><g id="Group-124" transform="translate(0.901288, 34.240815)"><path id="Fill-74" fill="#FFF" d="M65.8341888,141.932421 C65.8341888,160.112292 51.0963348,174.849245 32.9173648,174.849245 C14.7374936,174.849245 -0.000360515021,160.112292 -0.000360515021,141.932421 C-0.000360515021,123.753451 14.7374936,109.016498 32.9173648,109.016498 C51.0963348,109.016498 65.8341888,123.753451 65.8341888,141.932421"/><path id="Stroke-76" stroke="#3445DC" stroke-linecap="round" stroke-linejoin="round" stroke-width="1.803" d="M65.8341888,141.932421 C65.8341888,160.112292 51.0963348,174.849245 32.9173648,174.849245 C14.7374936,174.849245 -0.000360515021,160.112292 -0.000360515021,141.932421 C-0.000360515021,123.753451 14.7374936,109.016498 32.9173648,109.016498 C51.0963348,109.016498 65.8341888,123.753451 65.8341888,141.932421 Z"/><path id="Fill-78" fill="#E0EAFD" d="M21.3401459,133.013639 C20.1234077,131.797803 20.1234077,129.826687 21.3401459,128.609948 C22.5559828,127.395013 24.5270987,127.395013 25.7438369,128.609948 C26.9587725,129.826687 26.9587725,131.797803 25.7438369,133.013639 C24.5270987,134.230378 22.5559828,134.230378 21.3401459,133.013639"/><path id="Stroke-80" stroke="#3445DC" stroke-linecap="round" stroke-linejoin="round" stroke-width="1.803" d="M21.3401459,133.013639 C20.1234077,131.797803 20.1234077,129.826687 21.3401459,128.609948 C22.5559828,127.395013 24.5270987,127.395013 25.7438369,128.609948 C26.9587725,129.826687 26.9587725,131.797803 25.7438369,133.013639 C24.5270987,134.230378 22.5559828,134.230378 21.3401459,133.013639 Z"/><path id="Fill-82" fill="#3445DC" d="M39.9292017,152.797983 C41.5010472,154.053476 43.788515,153.971459 45.2440944,152.51588 C46.7005751,151.059399 46.7825923,148.77103 45.528,147.200086 L39.9292017,152.797983 Z"/><path id="Fill-84" fill="#E0EAFD" d="M22.9120815,130.812425 C20.3956867,133.32882 18.5083906,140.248906 23.5411803,144.022597 C28.57397,147.797189 28.57397,147.797189 29.8321674,150.313584 C31.0903648,152.829979 31.0903648,157.862768 31.0903648,157.862768 L41.1550429,147.797189 L40.5268455,148.426288 L50.5915236,138.360708 C50.5915236,138.360708 45.5596352,138.360708 43.0432403,137.102511 C40.5268455,135.845215 40.5268455,135.845215 36.7513519,130.812425 C32.9776609,125.779635 26.0575751,127.666931 23.5411803,130.183326 L22.9120815,130.812425 Z"/><path id="Stroke-86" stroke="#3445DC" stroke-linecap="round" stroke-linejoin="round" stroke-width="1.803" d="M22.9120815,130.812425 C20.3956867,133.32882 18.5083906,140.248906 23.5411803,144.022597 C28.57397,147.797189 28.57397,147.797189 29.8321674,150.313584 C31.0903648,152.829979 31.0903648,157.862768 31.0903648,157.862768 L41.1550429,147.797189 L40.5268455,148.426288 L50.5915236,138.360708 C50.5915236,138.360708 45.5596352,138.360708 43.0432403,137.102511 C40.5268455,135.845215 40.5268455,135.845215 36.7513519,130.812425 C32.9776609,125.779635 26.0575751,127.666931 23.5411803,130.183326 L22.9120815,130.812425 Z"/><g id="Group-91" transform="translate(36.051502, 136.995708)"><path id="Fill-88" fill="#E0EAFD" d="M0.071832618,9.54346352 L8.86569528,0.749600858"/><path id="Stroke-90" stroke="#3445DC" stroke-linecap="round" stroke-linejoin="round" stroke-width="1.803" d="M0.071832618,9.54346352 L8.86569528,0.749600858"/></g><path id="Stroke-92" stroke="#3445DC" stroke-linecap="round" stroke-linejoin="round" stroke-width="1.803" d="M19.6502318,147.283815 C19.0184292,146.910682 18.4226781,146.452828 17.880103,145.910253 C14.9518197,142.98197 14.4912618,138.520597 16.4984292,135.110124 C16.8733648,134.473815 17.3339227,133.874459 17.880103,133.32918"/><path id="Stroke-94" stroke="#3445DC" stroke-linecap="round" stroke-linejoin="round" stroke-width="1.803" d="M40.0136524,126.920305 C39.6405193,126.289403 39.1817639,125.693652 38.6400901,125.150176 C35.7118069,122.221893 31.2495322,121.761335 27.8399614,123.769403 C27.2036524,124.143438 26.6042961,124.604897 26.0581159,125.150176"/><path id="Fill-96" fill="#FFF" d="M136.827258,8.26372532 C136.827258,12.60703 133.298717,16.1283605 128.946399,16.1283605 C124.594082,16.1283605 121.065541,12.60703 121.065541,8.26372532 C121.065541,3.9204206 124.594082,0.398188841 128.946399,0.398188841 C133.298717,0.398188841 136.827258,3.9204206 136.827258,8.26372532"/><path id="Stroke-98" stroke="#000" stroke-linecap="round" stroke-linejoin="round" stroke-width="1.803" d="M136.827258,8.26372532 C136.827258,12.60703 133.298717,16.1283605 128.946399,16.1283605 C124.594082,16.1283605 121.065541,12.60703 121.065541,8.26372532 C121.065541,3.9204206 124.594082,0.398188841 128.946399,0.398188841 C133.298717,0.398188841 136.827258,3.9204206 136.827258,8.26372532 Z"/><g id="Group-103" transform="translate(124.377682, 5.407725)"><polyline id="Fill-100" fill="#FFF" points=".433 2.481 4.178 5.477 7.923 .234"/><polyline id="Stroke-102" stroke="#000" stroke-linecap="round" stroke-linejoin="round" stroke-width="1.803" points=".433 2.481 4.178 5.477 7.923 .234"/></g><path id="Fill-104" fill="#FFF" d="M48.551279,74.4132747 C48.551279,78.962073 44.862309,82.6501416 40.3117082,82.6501416 C35.7620086,82.6501416 32.0730386,78.962073 32.0730386,74.4132747 C32.0730386,69.8644764 35.7620086,66.1764077 40.3117082,66.1764077 C44.862309,66.1764077 48.551279,69.8644764 48.551279,74.4132747"/><path id="Stroke-106" stroke="#000" stroke-linecap="round" stroke-linejoin="round" stroke-width="1.803" d="M48.551279,74.4132747 C48.551279,78.962073 44.862309,82.6501416 40.3117082,82.6501416 C35.7620086,82.6501416 32.0730386,78.962073 32.0730386,74.4132747 C32.0730386,69.8644764 35.7620086,66.1764077 40.3117082,66.1764077 C44.862309,66.1764077 48.551279,69.8644764 48.551279,74.4132747 Z"/><path id="Stroke-108" stroke="#000" stroke-linecap="round" stroke-linejoin="round" stroke-width="1.803" d="M38.0984163,72.899382 C38.0984163,71.6664206 39.0979442,70.6650901 40.3327082,70.6650901 C41.5656695,70.6650901 42.5660987,71.6664206 42.5660987,72.899382 C42.5660987,74.1332446 41.5656695,75.1336738 40.3327082,75.1336738 C39.0979442,75.1336738 38.0984163,74.1332446 38.0984163,72.899382 Z"/><path id="Stroke-110" stroke="#000" stroke-linecap="round" stroke-linejoin="round" stroke-width="1.803" d="M36.9023176,77.406721 C37.4674249,76.0710129 38.790515,75.1336738 40.332618,75.1336738 C41.8476824,75.1336738 43.1527468,76.0385665 43.733176,77.3400258"/><path id="Fill-112" fill="#FFF" d="M146.105112,132.382648 C146.105112,136.697112 142.607215,140.195009 138.292751,140.195009 C133.978288,140.195009 130.480391,136.697112 130.480391,132.382648 C130.480391,128.067283 133.978288,124.569386 138.292751,124.569386 C142.607215,124.569386 146.105112,128.067283 146.105112,132.382648"/><path id="Stroke-114" stroke="#000" stroke-linecap="round" stroke-linejoin="round" stroke-width="1.803" d="M146.105112,132.382648 C146.105112,136.697112 142.607215,140.195009 138.292751,140.195009 C133.978288,140.195009 130.480391,136.697112 130.480391,132.382648 C130.480391,128.067283 133.978288,124.569386 138.292751,124.569386 C142.607215,124.569386 146.105112,128.067283 146.105112,132.382648 Z"/><path id="Fill-116" fill="#FFF" d="M136.079189,130.855506 C136.079189,129.621644 137.078717,128.621215 138.313481,128.621215 C139.546442,128.621215 140.546871,129.621644 140.546871,130.855506 C140.546871,132.088468 139.546442,133.088897 138.313481,133.088897 C137.078717,133.088897 136.079189,132.088468 136.079189,130.855506"/><path id="Stroke-118" stroke="#000" stroke-linecap="round" stroke-linejoin="round" stroke-width="1.803" d="M136.079189,130.855506 C136.079189,129.621644 137.078717,128.621215 138.313481,128.621215 C139.546442,128.621215 140.546871,129.621644 140.546871,130.855506 C140.546871,132.088468 139.546442,133.088897 138.313481,133.088897 C137.078717,133.088897 136.079189,132.088468 136.079189,130.855506 Z"/><g id="Group-123" transform="translate(134.291845, 132.489270)"><path id="Fill-120" fill="#FFF" d="M0.591154506,2.87357511 C1.1562618,1.53786695 2.47935193,0.599626609 4.02145494,0.599626609 C5.53651931,0.599626609 6.84158369,1.5054206 7.42201288,2.80597854"/><path id="Stroke-122" stroke="#000" stroke-linecap="round" stroke-linejoin="round" stroke-width="1.803" d="M0.591154506,2.87357511 C1.1562618,1.53786695 2.47935193,0.599626609 4.02145494,0.599626609 C5.53651931,0.599626609 6.84158369,1.5054206 7.42201288,2.80597854"/></g></g></g></g></g></svg>